# xmcd CD database file
#
# Track frame offsets:
#	150
#	33937
#	65102
#	95092
#	120042
#	158425
#	191000
#	226482
#	254530
#	274245
#	307875
#
# Disc length: 4400 seconds
#
# Revision: 0
# Processed by: cddbd v1.5.1PL0 Copyright (c) Steve Scherf et al.
# Submitted via: CDex 1.51
#
DISCID=8e112e0b
DTITLE=Various Artist - The Best Selections of Jazz Piano Vol.1
DYEAR=2004
DGENRE=Jazz
TTITLE0=Love Theme From Godfather (Ray Bryant Trio)
TTITLE1=2 Degrees East, 3 Degrees West (Ray Bryant Trio)
TTITLE2=March, Johnny, March (Ray Bryant Trio)
TTITLE3=Elevation suite:Impressions:So What-Elevation (Ray Bryant Trio)
TTITLE4=Nardis (Ray Bryant Trio)
TTITLE5=Night Train (Junior Mance Trio)
TTITLE6=All Blues (Junior Mance Trio)
TTITLE7=Bag's Groove (Junior Mance Trio)
TTITLE8=You'd Be So Nice To Come Home To (Junior Mance Trio)
TTITLE9=Take The A Train (Junior Mance Trio)
TTITLE10=Jubilation (Junior Mance Trio)
EXTD=YEAR: 2004
EXTT0=
EXTT1=
EXTT2=
EXTT3=
EXTT4=
EXTT5=
EXTT6=
EXTT7=
EXTT8=
EXTT9=
EXTT10=
PLAYORDER=
